Coordinates
version=1
nRows=8
nColumns=34
inDegrees=yes

Units are S.I. units (second, meters, Newtons, ...)
If the header above contains a line with 'inDegrees', this indicates whether rotational values are in degrees (yes) or radians (no).

endheader
time	pelvis_tilt	pelvis_list	pelvis_rotation	pelvis_tx	pelvis_ty	pelvis_tz	hip_flexion_r	hip_adduction_r	hip_rotation_r	knee_angle_r	ankle_angle_r	subtalar_angle_r	mtp_angle_r	hip_flexion_l	hip_adduction_l	hip_rotation_l	knee_angle_l	ankle_angle_l	subtalar_angle_l	mtp_angle_l	lumbar_extension	lumbar_bending	lumbar_rotation	arm_flex_r	arm_add_r	arm_rot_r	elbow_flex_r	pro_sup_r	arm_flex_l	arm_add_l	arm_rot_l	elbow_flex_l	pro_sup_l
      3.51666670	    -34.93787461	      2.91945956	     -0.19638932	      1.00247843	      0.94709753	     -0.09273978	     76.85445191	     -9.29382895	     -7.44933000	     63.68580568	     15.32454641	    -35.00000000	      0.00000000	     73.84904335	    -12.62648683	     -3.36870330	     69.59929688	     23.71186124	     -9.42157806	      0.00000000	    -15.77280122	     -1.10702504	     -4.57171114	     76.48844378	    -58.20823214	     32.53497359	     82.46473210	     76.30489470	   -112.15548421	   -126.80672719	   -154.26223459	     48.24850575	     54.76212255
      3.53333330	    -33.32190454	      2.92989376	     -0.18885372	      1.02790744	      0.97325713	     -0.07481714	     71.21422284	     -8.71549682	     -7.98500812	     58.59474171	     13.86125697	    -35.00000000	      0.00000000	     68.06452826	    -12.61114537	     -4.31529464	     64.28855941	     21.96628769	     -9.44436506	      0.00000000	    -13.75044411	     -1.57771063	     -5.79524813	     62.71812875	    -56.93341998	     26.87863799	     84.55235222	     75.95499828	   -125.40632681	   -124.08179987	   -157.95398808	     48.91990446	     54.74217790
      3.55000000	    -31.63152200	      2.65506388	      0.17039442	      1.03654663	      1.00204993	     -0.07270901	     65.70090950	     -8.24849062	     -8.70163513	     53.62687266	     12.07739792	    -35.00000000	      0.00000000	     62.55865439	    -12.20744119	     -4.80574027	     59.00848774	     20.15059664	     -9.17943884	      0.00000000	    -12.36896098	     -1.32299146	     -5.80346859	     48.92747641	    -58.29559797	     20.96888345	     89.04504839	     75.89337052	   -137.69588716	   -124.33506305	   -163.88958651	     52.28936901	     54.77226699
      3.56666670	    -29.36313024	      2.25774160	      0.86768796	      1.04318738	      1.04328803	     -0.06990433	     59.18390849	     -8.00585950	     -9.89966333	     47.52642796	      8.93618386	    -35.00000000	      0.00000000	     56.25996803	    -11.55422004	     -4.92580170	     52.27466252	     16.09092055	     -9.19098533	      0.00000000	    -11.25669013	     -1.05041440	     -7.11872905	     39.43160224	    -55.18970013	     17.75370627	     87.72137047	     75.81357153	   -145.60003121	   -125.29819403	   -165.37345329	     51.76030995	     55.09015623
      3.58333330	    -27.83626631	      1.95716731	      1.72982207	      1.05172953	      1.07353713	     -0.06727451	     53.01403988	     -7.77444160	    -11.45504829	     40.36364631	      6.37559550	    -33.21697915	      0.00000000	     51.21308438	    -10.85286447	     -4.85661990	     45.85119318	     11.88246012	     -8.08921946	      0.00000000	    -10.22565577	     -1.12496486	     -7.02262416	     26.07515654	    -54.38285080	     10.86970851	     89.31143299	     76.37923736	   -155.34766903	   -127.80083305	   -170.07736065	     53.49210468	     55.97200951
      3.60000000	    -24.93664852	      1.94827243	      1.81963028	      1.08078413	      1.11778902	     -0.06173850	     44.05765436	     -7.19117319	    -13.33604273	     31.15476655	      3.05645240	    -29.40391454	      0.00000000	     43.66657947	    -10.71014137	     -5.50010994	     37.99134846	      5.85735860	     -5.65918613	      0.00000000	     -9.24691234	     -1.59819505	     -6.97431402	     13.07722429	    -50.44054837	      5.58183174	     87.83362175	     77.90371921	   -163.74897063	   -131.19006957	   -172.17980604	     51.89360932	     57.57914607
      3.61666670	    -22.15845500	      2.75154374	      1.48610150	      1.10828609	      1.15797245	     -0.06194046	     35.67498243	     -7.12743320	    -15.59465344	     23.03035352	     -1.46376009	    -24.00401081	      0.00000000	     35.59655741	     -9.93453560	     -7.23579113	     29.38693059	     -1.39524475	     -2.77298166	      0.00000000	     -7.90095358	     -2.73325483	     -6.61003711	      4.22734774	    -45.87496357	      3.70299082	     83.54416517	     79.41058038	   -170.42393656	   -135.45367855	   -173.09409471	     48.87692641	     58.80383626
      3.63333330	    -19.08338780	      3.63185287	      1.78226800	      1.13993317	      1.19906117	     -0.06619037	     27.22632133	     -7.70787400	    -18.93579864	     15.65689789	     -8.55609963	    -19.69128258	      0.00000000	     27.69283891	     -8.49324949	     -9.00053552	     21.55402782	    -10.67922296	     -0.85900272	      0.00000000	     -6.80072763	     -3.77605079	     -6.91036799	     -3.66465336	    -41.52149326	      2.62523186	     78.94951656	     79.78017199	   -178.32471401	   -139.75091550	   -173.10505983	     46.68863517	     59.10688604
